<svg width="0" height="0">
  <symbol id="decorator_1" width="117" height="99" viewBox="0 0 117 99" fill="none" xmlns="http://www.w3.org/2000/svg">
    <path d="M26.5549 68.8862C43.489 65.6224 59.4871 62.5414 70.533 75.3135C81.8268 88.3691 99.4905 80.8622 115.074 74.2411C115.72 73.9686 116.362 73.696 117 73.427V76.1206C115.688 76.698 114.363 77.2827 113.035 77.8816C97.6502 84.7466 81.7415 91.8446 72.2799 79.3235C66.1618 71.2355 58.3049 68.7463 49.5137 68.7463C42.6765 68.7463 35.2746 70.2527 27.6883 71.795C18.3759 73.6852 8.85868 75.6041 0 74.711V71.6659C8.50808 72.3546 17.6264 70.6043 26.5549 68.8862Z" fill="currentColor"/>
    <path d="M34.0856 91.2599C50.5903 87.2464 64.8984 83.7781 72.0362 99H70.854C67.0961 93.3366 61.8271 91.4177 55.5709 91.4177C49.595 91.4177 42.7253 93.1537 35.4282 94.9937C29.1017 96.7332 22.6431 98.0711 16.1013 99H1.23339C0.822263 98.939 0.411124 98.8745 0 98.8027V94.9435C11.5225 96.744 23.3171 93.8782 34.0856 91.2599Z" fill="currentColor"/>
    <path d="M68.4205 45.6409C84.114 53.7576 102.31 49.9987 117 45.8633V47.7929C102.143 52.4197 84.5974 56.9031 70.1877 48.3381C61.4655 43.1517 51.9268 41.5628 42.3718 41.5628C34.4971 41.7422 26.6488 42.4595 18.8983 43.7077C12.6608 44.7371 6.34237 45.3396 0 45.5082V43.4028C5.98162 43.202 11.9421 42.6568 17.8437 41.7744C34.0518 39.7085 52.4224 37.3664 68.4205 45.6409Z" fill="currentColor"/>
    <path d="M67.7949 35.7524C84.6258 42.212 102.383 39.6404 117 36.3227V38.0335C102.671 41.7207 85.0239 44.9738 69.4118 37.9941C59.9055 33.7438 49.7818 32.4491 39.9749 32.4491C31.9544 32.5854 23.9533 33.1915 16.0241 34.2603C10.714 34.9741 5.36534 35.4404 0 35.6591V33.8873C4.42406 33.7618 9.43231 33.2346 14.9427 32.6535C30.5878 31 50.0581 28.9449 67.7949 35.7524Z" fill="currentColor"/>
    <path d="M23.6287 59.8908C40.0887 57.0716 57.1065 54.1593 69.7855 65.4107C82.9927 77.132 100.99 70.5146 117 64.3957V66.8095C116.545 66.9924 116.09 67.1753 115.635 67.3583C99.588 73.8358 83.0008 80.5286 71.6258 69.0117C64.6018 61.9029 56.0909 59.7294 47.0193 59.7294C39.78 59.7294 32.1892 61.1103 24.7093 62.4732C16.0184 64.0549 7.62815 65.5793 0 65.0556V62.301C7.32955 62.6669 15.3396 61.3111 23.6287 59.8908Z" fill="currentColor"/>
    <path d="M69.9317 99H67.2139C64.2605 96.9054 60.5392 95.833 56.7489 95.9872C51.5855 95.9836 45.6867 97.3752 39.4183 99H21.1915C26.1311 98.1213 30.9732 96.9018 35.6276 95.7254C50.6064 91.945 62.8792 88.8569 69.9317 99Z" fill="currentColor"/>
    <path d="M25.0867 64.3921C41.4131 61.4223 58.2928 58.3521 70.1552 70.3603C82.493 82.8528 100.514 75.5789 116.419 69.1624C116.614 69.0834 116.805 69.0046 117 68.9256V71.4794C116.114 71.8524 115.22 72.229 114.327 72.6092C98.6089 79.2876 82.3549 86.1955 71.959 74.173C65.394 66.5835 57.0983 64.2701 48.1446 64.2701C41.0637 64.2701 33.5729 65.7156 26.1905 67.1359C17.3505 68.8396 8.31999 70.5648 0 69.8618V66.9745C7.99418 67.4981 16.6282 65.9308 25.0867 64.3921Z" fill="currentColor"/>
    <path d="M22.178 55.3787C38.7724 52.7174 55.9324 49.9628 69.428 60.4647C83.3015 71.257 101.721 65.3103 117 59.8262V62.111L116.951 62.1289C101.351 68.09 83.6752 74.8509 71.2846 63.8469C63.8137 57.2187 55.0874 55.1851 45.9021 55.1851C38.5084 55.1851 30.8181 56.5014 23.2411 57.7962C15.0479 59.2022 7.13333 60.5436 0 60.167V57.5917C6.85099 57.8285 14.3885 56.6269 22.178 55.3787Z" fill="currentColor"/>
    <path d="M31.0342 82.3219C48.2624 78.4698 63.1393 75.145 71.7355 90.2198C80.0555 104.81 95.8302 97.0883 111.085 89.6136C113.051 88.6524 115.025 87.6876 117 86.7587V89.9293C114.408 91.1702 111.808 92.4973 109.228 93.8172C105.6 95.6751 102.042 97.49 98.6292 99H76.0499C74.8718 97.7016 73.909 96.2669 73.1858 94.7354C68.5383 85.2594 61.3843 82.3793 52.9871 82.3793C46.6212 82.3793 39.5403 84.0328 32.2843 85.7257C22.0183 88.1216 10.7851 90.7399 0 89.1761V85.6468C10.3455 86.9487 21.1428 84.5349 31.0342 82.3219Z" fill="currentColor"/>
    <path d="M20.7329 50.856C37.4643 48.356 54.7624 45.77 69.0827 55.5222C83.6102 65.4179 101.737 60.3212 117 55.2174V57.3765C101.432 62.9825 84.0246 68.8683 70.9312 58.6785C63.0499 52.5489 53.9093 50.6874 44.5656 50.6874C36.9159 50.6874 29.1321 51.9355 21.7855 53.112C14.0916 54.3458 6.65274 55.5294 0 55.2819V52.8609C6.38624 52.9936 13.4464 51.9427 20.7329 50.856Z" fill="currentColor"/>
    <path d="M29.5278 77.8493C46.1784 74.2949 61.9084 70.9378 71.3252 85.2415C80.608 99.3443 96.7727 91.78 112.405 84.4668C113.933 83.753 115.468 83.0357 117 82.3363V85.3419C114.826 86.3569 112.649 87.4222 110.484 88.4838C95.1152 96.0087 80.5958 103.121 72.8933 89.6065C67.7462 80.5859 60.3565 77.8314 51.8212 77.8314C45.2968 77.8278 38.1062 79.4382 30.7352 81.0881C20.4823 83.38 9.98886 85.7221 0 84.4022V81.0163C9.5818 82.0924 19.6661 79.9547 29.5278 77.8493Z" fill="currentColor"/>
    <path d="M19.2887 46.3223C35.3677 44.095 53.5924 41.57 68.7496 50.5798C83.9108 59.6003 101.782 55.2675 117 50.5654V52.6062C102.123 57.6097 84.313 62.8749 70.5655 53.5101C62.2618 47.8539 52.9181 46.1287 43.4687 46.1287C35.6577 46.1287 27.7753 47.3051 20.3389 48.417C13.1499 49.4894 6.18596 50.5331 0 50.3968V48.1193C6.47318 47.9651 12.9224 47.3661 19.2887 46.3223Z" fill="currentColor"/>
    <path d="M32.554 86.7945C49.6315 82.8061 64.3824 79.3593 72.1499 95.2053C72.7958 96.5431 73.6002 97.8164 74.5508 99H73.0843C68.908 89.7499 62.3715 86.8591 54.3927 86.8591C48.2584 86.8591 41.2709 88.5556 33.8495 90.3597C23.1375 92.9672 11.399 95.8186 0 94.0001V90.2951C10.9265 91.8374 22.2227 89.2048 32.554 86.7945Z" fill="currentColor"/>
    <path d="M28.0349 73.3696C44.8256 69.9586 60.6896 66.7342 70.923 80.2739C81.1971 93.8639 97.7396 86.4825 113.738 79.3414C114.835 78.8536 115.919 78.373 117 77.8959V80.7438C115.249 81.5364 113.494 82.3542 111.751 83.172C96.0171 90.5319 81.1564 97.4864 72.5886 84.4704C66.954 75.9089 59.3287 73.2871 50.6634 73.2871C43.9805 73.2871 36.6843 74.8473 29.2037 76.4433C19.4204 78.5308 9.41483 80.6577 0 79.5602V76.3429C9.03783 77.2109 18.6387 75.2813 28.0349 73.3696Z" fill="currentColor"/>
    <path d="M68.1037 40.6984C84.378 47.9722 102.338 44.8447 117 41.1181V42.9366C102.184 47.1688 84.8614 50.9528 69.8058 43.1661C60.6693 38.4424 50.9315 36.9898 41.279 36.9898C33.2958 37.1548 25.3357 37.8219 17.4606 38.9912C11.6854 39.852 5.85324 40.3864 0 40.5908V38.6361C5.49006 38.4209 10.9635 37.9475 16.3966 37.2194C32.7299 35.3148 51.2443 33.1556 68.1037 40.6984Z" fill="currentColor"/>
    <path d="M65.7637 1.062C82.818 2.10214 99.9292 2.23125 117 1.44935V2.36753C100.185 3.59059 83.273 3.42561 66.4949 1.87258C54.994 0.767877 43.4321 0.233475 31.863 0.272928C21.8835 0.272928 12.9967 0.606462 5.87641 0.871877C3.8992 0.947197 1.90775 1.02253 0 1.08351V0.527569C1.37597 0.495289 2.87826 0.455849 4.52682 0.416396C24.938 -0.304528 45.3781 -0.089327 65.7637 1.062Z" fill="currentColor"/>
    <path d="M117 99H110.305C112.531 97.8128 114.769 96.64 117 95.5353V99Z" fill="currentColor"/>
    <path d="M66.044 6.02596C82.9765 7.59693 100.035 7.77268 117 6.55321V7.60053C103.22 8.8738 85.6374 9.61264 66.9215 7.02305C55.7496 5.53458 44.4599 4.81724 33.1609 4.87104C23.5352 4.87104 14.779 5.30506 7.33931 5.6709C4.80756 5.79285 2.32172 5.91479 0 6.00445V5.262C1.8074 5.20462 3.80533 5.13288 6.04498 5.0468C20.5924 4.50163 42.579 3.68027 66.044 6.02596Z" fill="currentColor"/>
    <path d="M67.4943 30.8064C84.7233 36.4231 102.736 34.2926 117 31.4735V33.0839C102.688 36.3765 85.2311 39.0522 69.0096 32.8257C59.1012 29.0238 48.7865 27.8617 38.8821 27.8617C30.7531 27.9836 22.6395 28.536 14.5851 29.5188C9.29862 30.0783 4.34443 30.5983 0 30.7203V29.1063C4.01618 28.9664 8.5365 28.5432 13.4814 28.0733C29.2414 26.5848 48.8556 24.7305 67.4943 30.8064Z" fill="currentColor"/>
    <path d="M66.3284 10.9899C85.3043 13.6154 103.057 12.898 117 11.6284V12.7868C103.224 14.408 85.5439 15.4482 67.348 12.1771C56.4524 10.3049 45.374 9.40103 34.2761 9.48353C24.8373 9.48353 16.1675 10.0108 8.7953 10.4591C5.68424 10.6456 2.70562 10.8285 0 10.9433V10.0108C2.22747 9.92828 4.72182 9.80992 7.55176 9.67004C22.882 8.91325 43.879 7.88386 66.3284 10.9899Z" fill="currentColor"/>
    <path d="M66.2552 99H41.7868C51.748 96.4929 60.2427 95.0044 66.2552 99Z" fill="currentColor"/>
    <path d="M101.303 99C104.061 97.7052 106.893 96.2598 109.765 94.7892C112.17 93.559 114.587 92.3216 117 91.1559V94.4915C114.103 95.9119 111.199 97.4577 108.314 99H101.303Z" fill="currentColor"/>
    <path d="M67.1937 25.8567C84.9346 30.7024 102.765 29.0094 117 26.5777V28.0805C103.029 30.8817 85.2961 33.1018 68.5993 27.6608C58.7071 24.5906 48.2705 23.1022 37.7852 23.2671C29.5477 23.3747 21.3212 23.8769 13.1438 24.77C8.40002 25.2183 3.93574 25.6379 0 25.7778V24.336C3.54534 24.1925 7.55258 23.859 12.0132 23.4895C27.8854 22.1625 47.6409 20.5162 67.1937 25.8567Z" fill="currentColor"/>
    <path d="M66.6127 15.9468C85.1377 19.2788 103.021 18.2745 117 16.6497V17.9374C103.037 19.9782 85.5927 21.3375 67.7665 17.3348C57.1674 15.0716 46.2921 13.9812 35.386 14.0924C26.1316 14.0924 17.5516 14.7093 10.2505 15.2366C6.59385 15.502 3.12081 15.7495 0 15.8822V14.7847C2.69993 14.6699 5.70863 14.4905 9.04679 14.2861C24.2832 13.3571 45.1506 12.0911 66.6127 15.9468Z" fill="currentColor"/>
    <path d="M66.9052 20.9035C84.9549 24.9565 103.005 23.6222 117 21.6352V23.0268C103.025 25.4478 85.4587 27.2125 68.1849 22.496C57.9637 19.8275 47.3443 18.5363 36.6843 18.669C27.7521 18.669 19.2912 19.3756 11.6996 20.0068C7.50019 20.3583 3.52828 20.6883 0 20.8318V19.5549C3.14315 19.4222 6.66167 19.1712 10.5357 18.8914C25.6733 17.7975 46.4059 16.3018 66.9052 20.9035Z" fill="currentColor"/>
  </symbol>
</svg>